<svg width="56" height="74" viewBox="0 0 56 74" fill="none" xmlns="http://www.w3.org/2000/svg">
<path d="M50.7496 68.2633L27.9998 74L5.24976 68.2633L0 15H56L50.7496 68.2633Z" fill="#2062AF"/>
<path d="M29 18V69.9864L29.0498 70L46.8836 65.1835L51 18H29V18Z" fill="#3C9CD7"/>
<path d="M14.7898 7.44857V3.89187H19.8429V0H11V11H19.8429V7.44857H14.7898ZM28.9328 3.89187H32.4656V0H23.6219V3.89187C24.8051 5.10692 25.4221 5.68847 27.1333 7.44576C26.133 7.44576 23.6219 7.44944 23.6219 7.44927V11H32.4656V7.44857L28.9328 3.89187ZM41.4672 3.89187H44.9998V0H36.1558V3.89187C37.3389 5.10692 37.9563 5.68847 39.6675 7.44576C38.6675 7.44576 36.1558 7.44944 36.1558 7.44927V11H45V7.44857L41.4672 3.89187V3.89187Z" fill="white"/>
<path d="M27.8992 32.6482L11 38.8549L11.5604 45L27.8992 38.8393L45.2794 32.2862L46 26L27.8992 32.6482Z" fill="white"/>
<path d="M11 38.5324L11.5969 45L29 38.516V32L11 38.5324V38.5324Z" fill="url(#paint0_linear)"/>
<path d="M46 26L29 33.2491V40L45.3232 32.8544L46 26Z" fill="url(#paint1_linear)"/>
<path d="M11 40L11.5666 45.8002L36.9048 45.8667L36.338 53.6002L28.0003 55.5334L19.9853 53.8667L19.4996 49.0666H12.0522L13.0237 58.3334L28.0812 62L43.057 58.3999L45 40H11V40Z" fill="url(#paint2_linear)"/>
<path opacity="0.05" d="M29 40H11L11.5969 45.8002L29 45.8436V40ZM29 55.5148L28.9147 55.5334L20.4692 53.8667L19.9574 49.0666H12.1091L13.1327 58.3334L29 62V55.5148Z" fill="black"/>
<path d="M10 26H46L45.2897 32H10.8683L10 26V26Z" fill="url(#paint3_linear)"/>
<path opacity="0.05" d="M29 26H10L10.9086 32H29V26V26Z" fill="black"/>
<defs>
<linearGradient id="paint0_linear" x1="20" y1="45.0002" x2="20" y2="32.0002" gradientUnits="userSpaceOnUse">
<stop offset="0.387" stop-color="#D1D3D4" stop-opacity="0"/>
<stop offset="1" stop-color="#D1D3D4"/>
</linearGradient>
<linearGradient id="paint1_linear" x1="37.4998" y1="40.0002" x2="37.4998" y2="26.0002" gradientUnits="userSpaceOnUse">
<stop offset="0.387" stop-color="#D1D3D4" stop-opacity="0"/>
<stop offset="1" stop-color="#D1D3D4"/>
</linearGradient>
<linearGradient id="paint2_linear" x1="11" y1="51.0001" x2="44.9998" y2="51.0001" gradientUnits="userSpaceOnUse">
<stop stop-color="#E8E7E5"/>
<stop offset="1" stop-color="white"/>
</linearGradient>
<linearGradient id="paint3_linear" x1="10" y1="29" x2="45.9998" y2="29" gradientUnits="userSpaceOnUse">
<stop stop-color="#E8E7E5"/>
<stop offset="1" stop-color="white"/>
</linearGradient>
</defs>
</svg>
