<svg width="50" height="50" viewBox="0 0 50 50" fill="none" xmlns="http://www.w3.org/2000/svg">
<g clip-path="url(#clip0)">
<path d="M49.057 22.7723L27.2266 0.942981C25.9701 -0.314246 23.9311 -0.314246 22.673 0.942981L18.1398 5.47618L23.8904 11.2268C25.2268 10.7752 26.7592 11.0781 27.8244 12.1434C28.8947 13.2154 29.1955 14.761 28.733 16.1016L34.275 21.6438C35.6158 21.1819 37.1629 21.4807 38.2338 22.5533C39.7305 24.0494 39.7305 26.4742 38.2338 27.9713C36.7367 29.4686 34.3119 29.4686 32.8141 27.9713C31.6883 26.8444 31.4102 25.191 31.9801 23.8041L26.8117 18.6358L26.8111 32.2367C27.1858 32.422 27.528 32.6667 27.8244 32.9613C29.3211 34.4574 29.3211 36.8824 27.8244 38.3807C26.3273 39.8772 23.9014 39.8772 22.4064 38.3807C20.9098 36.8824 20.9098 34.4576 22.4064 32.9615C22.7651 32.6027 23.1914 32.3185 23.6605 32.1254V18.3977C23.1907 18.2059 22.7642 17.9215 22.4064 17.5615C21.2725 16.4291 20.9998 14.7652 21.5809 13.3729L15.9121 7.70353L0.943359 22.6713C-0.314453 23.9297 -0.314453 25.969 0.943359 27.2264L22.7742 49.0561C24.0311 50.3135 26.0697 50.3135 27.3281 49.0561L49.0568 27.3277C50.3143 26.0699 50.3143 24.0295 49.0568 22.7723" fill="#DE4C36"/>
</g>
<defs>
<clipPath id="clip0">
<rect width="50" height="50" fill="white"/>
</clipPath>
</defs>
</svg>
