<svg width="50" height="69" viewBox="0 0 50 69" fill="none" xmlns="http://www.w3.org/2000/svg">
<path d="M4.55023 63.4527L0 13.5594H50L45.4448 63.4448L24.9693 68.9942L4.55023 63.4527Z" fill="#E44D26"/>
<path d="M25 64.7526L41.545 60.2682L45.438 17.6391H25V64.7526Z" fill="#F16529"/>
<path d="M25 36.1438H16.7173L16.1451 29.8776H25V23.7584H9.30408L9.45407 25.4001L10.9925 42.2629H25V36.1438ZM25 52.0359L24.9725 52.0432L18.0013 50.2029L17.5557 45.3227H11.2723L12.1493 54.9308L24.9713 58.4105L25 58.4026V52.0359Z" fill="#EBEBEB"/>
<path d="M4.65204 0H7.83295V3.07231H10.7427V0H13.9237V9.30379H10.7427V6.18838H7.83295V9.30379H4.65227L4.65204 0ZM18.107 3.08541H15.3068V0H24.0901V3.08541H21.2885V9.30379H18.1072V3.08541H18.107ZM25.4839 0H28.8009L30.8413 3.26916L32.8797 0H36.1979V9.30379H33.0294V4.69222L30.8409 8.00026H30.7863L28.5963 4.69222V9.30379H25.4838V0H25.4839ZM37.7807 0H40.9625V6.22859H45.4361V9.30379H37.7807V0Z" fill="white"/>
<path d="M24.9784 36.1438V42.2628H32.6864L31.9597 50.1991L24.9784 52.041V58.4072L37.8107 54.9308L37.9046 53.8966L39.3757 37.787L39.5284 36.1438H37.8418H24.9784ZM24.9784 23.7584V29.8776H40.0981L40.2234 28.5021L40.5087 25.4001L40.6584 23.7584H24.9784Z" fill="white"/>
</svg>
