<svg width="50" height="65" viewBox="0 0 50 65" fill="none" xmlns="http://www.w3.org/2000/svg">
<path d="M4.64119 59.7536L0 13L50 13.0178L45.3978 59.7179L24.961 65L4.64119 59.7536ZM41.6342 57.2018L45.5148 17.1579H25.039L25.195 61.324L41.6342 57.2018ZM23.1279 23.0288H18.1552L18.0967 46.9945L8.44384 44.5854L8.46334 50.0638L23.1279 53.6863V23.0288Z" fill="#D4B830"/>
<path opacity="0.986" d="M21.4899 53.2402C20.8463 53.0618 17.6677 52.2766 14.4306 51.4736L8.56085 50.0281V47.3336C8.56085 44.6925 8.56085 44.639 8.85336 44.7282C9.00937 44.7818 11.1545 45.3171 13.6116 45.9417L18.0772 47.0659L18.1162 35.1098L18.1552 23.1537H23.0304V38.3576C23.0304 50.4386 22.9914 53.5614 22.8549 53.5614C22.7574 53.5436 22.1334 53.4008 21.4899 53.2402Z" fill="white"/>
<path d="M25.039 17.14H45.5148L41.6342 57.1839L25.039 61.3061V17.14ZM40.5811 50.4743L41.9267 35.5024L31.9813 36.5196V28.5251L42.5897 28.4894L43.0187 23.0288L27.0086 23.1002L27.2231 42.9794L36.8955 41.4626L36.759 45.8881L27.0086 48.2615L27.1061 53.6863L40.5811 50.4743Z" fill="#FDD83C"/>
<path d="M27 23H43L42.5 28.5L32 29V36.5L42 35.5L40.5 50.5L27 54V48L36.5 46V41.5L27 43V23Z" fill="white"/>
<path d="M11.7898 7.44857V3.89187H16.8429V0H8V11H16.8429V7.44857H11.7898ZM25.9328 3.89187H29.4656V0H20.6219V3.89187C21.8051 5.10692 22.4221 5.68847 24.1333 7.44576C23.133 7.44576 20.6219 7.44944 20.6219 7.44927V11H29.4656V7.44857L25.9328 3.89187ZM38.4672 3.89187H41.9998V0H33.1558V3.89187C34.3389 5.10692 34.9563 5.68847 36.6675 7.44576C35.6675 7.44576 33.1558 7.44944 33.1558 7.44927V11H42V7.44857L38.4672 3.89187V3.89187Z" fill="black"/>
</svg>
