<svg width="50" height="50" viewBox="0 0 50 50" fill="none" xmlns="http://www.w3.org/2000/svg">
<path d="M24.9997 0C24.24 0 23.5011 0.1392 22.8471 0.46743L2.15318 11.0672C0.814007 11.7518 0 13.0442 0 14.4194V35.5805C0 36.9547 0.814007 38.2454 2.15318 38.9316L7.5575 41.6988C10.1833 42.8466 11.1512 42.8287 12.3463 42.8287C16.2337 42.8287 18.4534 40.7364 18.4534 37.1004V16.2117C18.4534 15.9165 18.1652 15.7052 17.8385 15.7052H15.2463C14.9141 15.7052 14.6314 15.9165 14.6314 16.2117V37.1004C14.6314 38.7117 12.7383 40.3328 9.66671 38.9706L4.04255 36.048C3.84347 35.9521 3.69082 35.7826 3.69082 35.5805V14.4189C3.69082 14.2185 3.84164 14.0143 4.04255 13.9124L24.6925 3.35218C24.7858 3.30382 24.892 3.27834 25 3.27834C25.1081 3.27834 25.2142 3.30382 25.3075 3.35218L45.9581 13.913C46.1547 14.018 46.3098 14.2125 46.3098 14.4199V35.5811C46.3098 35.7831 46.195 35.99 46.002 36.0875L25.3075 46.6483C25.1304 46.742 24.8861 46.742 24.6925 46.6483L19.3762 43.8426C19.2953 43.8037 19.2047 43.7833 19.1126 43.7833C19.0206 43.7833 18.9301 43.8037 18.8492 43.8426C17.3818 44.5803 17.1057 44.6659 15.7293 45.0895C15.3904 45.1945 14.8756 45.3576 15.9052 45.8694L22.8471 49.493C23.5017 49.8279 24.2447 50.0028 25.0003 49.9999C25.7559 50.0041 26.499 49.8293 27.1529 49.4935L47.8474 38.9322C49.1866 38.2416 50 36.9552 50 35.5811V14.4194C50 13.0447 49.1866 11.7546 47.8474 11.0683L27.1529 0.468515C26.5044 0.139743 25.7606 0.000541337 25.0003 0.000541337L24.9997 0Z" fill="#83CD29"/>
<path d="M30.5359 15.1208C24.6431 15.1208 21.1336 17.3453 21.1336 21.0447C21.1336 25.0571 24.6168 26.1599 30.2727 26.656C37.0388 27.2437 37.5658 28.1249 37.5658 29.3062C37.5658 31.3552 35.7241 32.2289 31.3713 32.2289C25.9017 32.2289 24.6999 31.0178 24.2975 28.6048C24.2498 28.3459 24.0245 28.1368 23.7259 28.1368H21.0457C20.716 28.1368 20.4308 28.3892 20.4308 28.6828C20.4308 31.7718 22.325 35.4245 31.3713 35.4245C37.9194 35.4245 41.6963 33.1448 41.6963 29.1502C41.6963 25.1909 38.6455 24.1277 32.2934 23.3829C25.8754 22.6295 25.2635 22.2606 25.2635 20.9277C25.2635 19.8271 25.7826 18.3549 30.5359 18.3549C34.7824 18.3549 36.3518 19.1674 36.9948 21.7071C37.051 21.9454 37.288 22.1355 37.5658 22.1355H40.2466C40.4115 22.1355 40.5715 22.0456 40.6857 21.9405C40.798 21.8284 40.8774 21.7022 40.8615 21.5511C40.4463 17.1779 37.1585 15.1208 30.5359 15.1208Z" fill="#83CD29"/>
</svg>
