<svg width="50" height="50" viewBox="0 0 50 50" fill="none" xmlns="http://www.w3.org/2000/svg">
<path d="M50 25.0057C50 21.2863 45.852 17.7615 39.4925 15.5756C40.96 8.29709 40.3078 2.50629 37.4338 0.652323C36.7713 0.217441 35.9967 0.0114441 35.1508 0.0114441V2.56352C35.6196 2.56352 35.9967 2.66651 36.3127 2.86107C37.6987 3.75372 38.3 7.15267 37.8312 11.5244C37.7191 12.6001 37.5357 13.7331 37.3115 14.889C35.3139 14.3397 33.1329 13.9162 30.8398 13.6416C29.4639 11.5244 28.0371 9.60174 26.6001 7.91943C29.9225 4.45182 33.0412 2.55207 35.161 2.55207V0C32.3583 0 28.6894 2.24308 24.9796 6.13413C21.2699 2.26597 17.6009 0.0457772 14.7982 0.0457772V2.59785C16.9079 2.59785 20.0367 4.48615 23.3592 7.93088C21.9323 9.61318 20.5055 11.5244 19.15 13.6416C16.8467 13.9162 14.6657 14.3397 12.6682 14.9004C12.4338 13.756 12.2605 12.6459 12.1382 11.5816C11.6592 7.20989 12.2503 3.81094 13.6262 2.90684C13.9319 2.70085 14.3294 2.60929 14.7982 2.60929V0.0572213C13.9421 0.0572213 13.1675 0.263218 12.4949 0.6981C9.63106 2.55207 8.98899 8.33143 10.4668 15.5871C4.1276 17.7844 0 21.2978 0 25.0057C0 28.7251 4.14798 32.2499 10.5075 34.4358C9.03995 41.7143 9.69221 47.5051 12.5662 49.3591C13.2287 49.794 14.0033 50 14.8594 50C17.662 50 21.331 47.7569 25.0408 43.8659C28.7505 47.734 32.4195 49.9542 35.2222 49.9542C36.0783 49.9542 36.8528 49.7482 37.5255 49.3133C40.3893 47.4594 41.0314 41.68 39.5536 34.4244C45.8724 32.2385 50 28.7137 50 25.0057ZM36.7305 17.3724C36.3534 18.8487 35.8846 20.3708 35.3547 21.8929C34.9368 20.9773 34.4986 20.0618 34.0196 19.1463C33.5508 18.2307 33.0514 17.3381 32.552 16.4683C33.9992 16.7086 35.3954 17.0062 36.7305 17.3724ZM32.0628 29.5605C31.2678 31.1055 30.4525 32.5704 29.6066 33.9323C28.0881 34.081 26.5491 34.1611 25 34.1611C23.4611 34.1611 21.9221 34.081 20.4138 33.9437C19.5679 32.5818 18.7424 31.1284 17.9474 29.5949C17.1728 28.0957 16.4696 26.5736 15.8276 25.0401C16.4594 23.5065 17.1729 21.973 17.9372 20.4738C18.7322 18.9288 19.5475 17.4639 20.3934 16.1021C21.9119 15.9533 23.4509 15.8732 25 15.8732C26.5389 15.8732 28.0779 15.9533 29.5862 16.0906C30.4321 17.4525 31.2576 18.9059 32.0526 20.4395C32.8272 21.9387 33.5304 23.4607 34.1724 24.9943C33.5304 26.5278 32.8271 28.0613 32.0628 29.5605ZM35.3547 28.0728C35.905 29.6063 36.3738 31.1398 36.7611 32.6276C35.426 32.9938 34.0196 33.3028 32.5622 33.5431C33.0616 32.6619 33.5609 31.7578 34.0298 30.8309C34.4986 29.9153 34.9368 28.9883 35.3547 28.0728ZM25.0204 40.2838C24.0726 39.1852 23.1247 37.9606 22.1871 36.6217C23.1044 36.6674 24.042 36.7018 24.9898 36.7018C25.9478 36.7018 26.8956 36.6789 27.8231 36.6217C26.9058 37.9606 25.958 39.1852 25.0204 40.2838ZM17.4378 33.5431C15.9906 33.3028 14.5944 33.0053 13.2593 32.639C13.6364 31.1627 14.1052 29.6406 14.6351 28.1186C15.053 29.0341 15.4912 29.9496 15.9702 30.8652C16.4492 31.7807 16.9384 32.6734 17.4378 33.5431ZM24.9694 9.72763C25.9172 10.8263 26.8651 12.0508 27.8027 13.3898C26.8854 13.344 25.9478 13.3097 25 13.3097C24.042 13.3097 23.0942 13.3326 22.1667 13.3898C23.084 12.0508 24.0318 10.8263 24.9694 9.72763ZM17.4276 16.4683C16.9283 17.3495 16.4289 18.2536 15.96 19.1806C15.4912 20.0961 15.053 21.0117 14.6351 21.9272C14.0848 20.3937 13.616 18.8602 13.2287 17.3724C14.5638 17.0176 15.9702 16.7086 17.4276 16.4683ZM8.20424 30.7965C4.59641 29.0684 2.26254 26.8025 2.26254 25.0057C2.26254 23.209 4.59641 20.9316 8.20424 19.2149C9.08072 18.7915 10.0387 18.4138 11.0273 18.0591C11.6082 20.3021 12.3726 22.6368 13.3204 25.0286C12.3828 27.409 11.6286 29.7322 11.0579 31.9638C10.0489 31.6091 9.09091 31.22 8.20424 30.7965ZM13.6873 47.1504C12.3013 46.2577 11.7 42.8588 12.1688 38.4871C12.2809 37.4113 12.4643 36.2783 12.6885 35.1225C14.6861 35.6718 16.8671 36.0952 19.1602 36.3699C20.5361 38.4871 21.9629 40.4097 23.3999 42.092C20.0775 45.5596 16.9588 47.4594 14.839 47.4594C14.3804 47.4479 13.9931 47.3449 13.6873 47.1504ZM37.8618 38.4298C38.3408 42.8016 37.7497 46.2005 36.3738 47.1046C36.0681 47.3106 35.6706 47.4022 35.2018 47.4022C33.0921 47.4022 29.9633 45.5138 26.6409 42.0691C28.0677 40.3868 29.4945 38.4756 30.85 36.3584C33.1533 36.0838 35.3343 35.6603 37.3318 35.0996C37.5662 36.2554 37.7497 37.3655 37.8618 38.4298ZM41.7856 30.7965C40.9091 31.22 39.9511 31.5976 38.9625 31.9524C38.3816 29.7093 37.6172 27.3747 36.6694 24.9828C37.607 22.6024 38.3612 20.2792 38.9319 18.0476C39.9409 18.4024 40.8989 18.7915 41.7958 19.2149C45.4036 20.943 47.7375 23.209 47.7375 25.0057C47.7273 26.8025 45.3934 29.0799 41.7856 30.7965Z" fill="#61DAFB"/>
<path d="M24.9898 30.2358C27.5621 30.2358 29.6474 27.8942 29.6474 25.0057C29.6474 22.1173 27.5621 19.7757 24.9898 19.7757C22.4175 19.7757 20.3323 22.1173 20.3323 25.0057C20.3323 27.8942 22.4175 30.2358 24.9898 30.2358Z" fill="#61DAFB"/>
</svg>
